<svg width="250.24999999999997" height="46.2826875505924"
    viewBox="0 0 369.9130434782609 68.41386538338881" class="looka-1j8o68f">
    <defs id="SvgjsDefs9889">
        <linearGradient id="SvgjsLinearGradient9894">
            <stop id="SvgjsStop9895" stop-color="#00ff8f" offset="0"></stop>
            <stop id="SvgjsStop9896" stop-color="#00a1ff" offset="1"></stop>
        </linearGradient>
        <linearGradient id="SvgjsLinearGradient9897">
            <stop id="SvgjsStop9898" stop-color="#00ff8f" offset="0"></stop>
            <stop id="SvgjsStop9899" stop-color="#00a1ff" offset="1"></stop>
        </linearGradient>
    </defs>
    <g id="SvgjsG9890" featurekey="mugSzh-0"
        transform="matrix(0.8181421363737963,0,0,0.8181421363737963,-2.8633539129380434,-6.700585314077574)"
        fill="url(#SvgjsLinearGradient9894)">
        <path xmlns="http://www.w3.org/2000/svg"
            d="M92.273,67.142c-3.417-4.418-8.2-5.995-11.224-6.558l12.368-15.536c0.355-0.446,0.427-1.056,0.184-1.572  c-0.242-0.516-0.757-0.85-1.328-0.861l-8.731-0.172c0.56-0.703,1.053-1.543,1.353-2.528c0.678-2.226,0.237-4.617-1.312-7.107  c-2.011-3.234-5.396-3.786-8.118-4.229c-1.371-0.224-2.667-0.435-3.298-0.932c-0.818-0.643-1.124-3.737-1.347-5.997  c-0.366-3.719-0.745-7.565-3.121-9.081c-1.439-0.918-3.053-1.364-4.932-1.364c-1.784,0-3.557,0.399-5.271,0.785  c-1.609,0.362-3.129,0.704-4.548,0.704c-0.288,0-0.565-0.015-0.827-0.043c-1.289-0.142-3.539-0.853-5.922-1.605  c-4.028-1.272-9.04-2.856-12.958-2.856c-1.49,0-2.725,0.218-3.774,0.665c-3.24,1.381-3.667,6.06-4.079,10.585  c-0.243,2.661-0.493,5.413-1.29,6.639c-0.588,0.905-2.602,1.518-4.549,2.109c-3.601,1.095-8.083,2.458-9.323,6.984  c-0.815,2.975,2.297,6.355,4.977,8.622L4.876,44.65c-0.543,0.045-1.02,0.381-1.244,0.879c-0.224,0.498-0.16,1.077,0.167,1.514  l12.563,16.804c-2.004,0.992-5.234,2.855-7.115,5.32C5.895,73.561,5.396,88.573,5.35,90.271c-0.011,0.419,0.154,0.824,0.455,1.116  c0.281,0.272,0.656,0.424,1.045,0.424c0.028,0,0.057-0.001,0.085-0.002l88.15-5.004c0.397-0.023,0.77-0.202,1.034-0.499  c0.265-0.298,0.401-0.688,0.378-1.085C96.418,83.826,95.619,71.462,92.273,67.142z M38.922,55.522  c-1.374,2.13-3.913,6.399-9.192,4.284c-5.756-2.307-9.995-13.895-5.393-12.305c3.009,1.041,10.365,3.104,15.061,3.491  C40.346,51.071,39.568,54.52,38.922,55.522z M51.388,63.107c-6.479,1.357-8.481-4.067-9.671-6.767  c-0.447-1.015-0.663-5.255,0.439-5.153c5.46,0.505,14.205-0.335,17.864-0.92C65.617,49.376,58.449,61.629,51.388,63.107z   M67.262,35.447c-16.355,7.651-33.092,3.284-40.432-0.688c-3.642-1.971-1.451-3.718,1.451-2.03  c5.887,3.422,23.12,6.526,36.986,0.725C71.048,31.035,70.548,33.911,67.262,35.447z"></path>
    </g>
    <g id="SvgjsG9891" featurekey="PPkF4s-0"
        transform="matrix(2.169780165663905,0,0,2.169780165663905,93.61324202469606,1.5001647081285796)"
        fill="#46A6F8">
        <path
            d="M1.1 18.16 l0 -10.08 c0 -1.08 0.58 -1.9 1.68 -1.9 s1.68 0.82 1.68 1.9 l0 10.08 c0 1.08 -0.58 1.9 -1.68 1.9 s-1.68 -0.82 -1.68 -1.9 z M12.035000000000002 18.24 l0 -7.02 c0 -1.04 0.74 -1.5 1.62 -1.5 s1.22 0.68 1.4 1.16 c0.78 -0.72 1.56 -1.16 2.56 -1.16 c1.6 0 3.42 0.88 3.42 3.28 l0 5.24 c0 1.02 -0.56 1.82 -1.62 1.82 s-1.62 -0.8 -1.62 -1.82 l0 -4.36 c0 -0.88 -0.5 -1.32 -1.26 -1.32 s-1.26 0.44 -1.26 1.32 l0 4.36 c0 1.02 -0.56 1.82 -1.62 1.82 s-1.62 -0.8 -1.62 -1.82 z M32.31 9.84 l3.28 0 c0.94 0 1.66 0.5 1.66 1.48 c0 0.96 -0.72 1.48 -1.66 1.48 l-2.88 0 c-0.74 0 -1.3 0.4 -1.3 1.48 c0 2.2 1.44 2.76 3.84 2.76 c1.44 0 2.16 0.44 2.16 1.52 c0 1.06 -0.72 1.44 -2.16 1.44 c-5.46 0 -7.2 -2.9 -7.2 -5.54 c0 -2.58 1.46 -4.62 4.26 -4.62 z M48.485 12.559999999999999 c-1.32 0 -1.72 1.26 -1.72 2.36 s0.4 2.36 1.72 2.36 s1.72 -1.26 1.72 -2.36 s-0.4 -2.36 -1.72 -2.36 z M53.565 14.92 c0 3.06 -2 5.2 -5.08 5.2 c-3.04 0 -5.08 -2.14 -5.08 -5.2 s2.04 -5.2 5.08 -5.2 c3.08 0 5.08 2.14 5.08 5.2 z M69 13.1 l0 4.12 c0 0.64 1.62 0.94 1.62 3.08 c0 3.36 -2.92 4.3 -5.82 4.3 c-2.4 0 -5.16 -0.78 -5.16 -2.42 c0 -0.7 0.58 -1.28 1.28 -1.28 c0.66 0 2.42 0.86 4.18 0.86 c1.3 0 2.16 -0.38 2.16 -1.06 c0 -0.36 -0.34 -0.58 -0.72 -0.58 l-1.48 0 c-3.02 0 -5 -1.38 -5 -4.64 c0 -3.22 2.22 -5.76 6.8 -5.76 c1.9 0 3.5 0 3.5 1.68 c0 1.44 -1.36 0.96 -1.36 1.7 z M65.91999999999999 17.240000000000002 l0 -4.44 c-1.98 0.04 -2.78 1.42 -2.78 2.74 c0 1.28 0.84 1.74 1.94 1.74 c0.34 0 0.6 -0.02 0.84 -0.04 z M77.05499999999999 18.24 l0 -7.02 c0 -1.04 0.74 -1.5 1.62 -1.5 s1.22 0.68 1.4 1.16 c0.78 -0.72 1.56 -1.16 2.56 -1.16 c1.6 0 3.42 0.88 3.42 3.28 l0 5.24 c0 1.02 -0.56 1.82 -1.62 1.82 s-1.62 -0.8 -1.62 -1.82 l0 -4.36 c0 -0.88 -0.5 -1.32 -1.26 -1.32 s-1.26 0.44 -1.26 1.32 l0 4.36 c0 1.02 -0.56 1.82 -1.62 1.82 s-1.62 -0.8 -1.62 -1.82 z M96.92999999999999 11.54 l0 6.7 c0 1.02 -0.56 1.82 -1.62 1.82 s-1.62 -0.8 -1.62 -1.82 l0 -6.7 c0 -1.02 0.56 -1.82 1.62 -1.82 s1.62 0.8 1.62 1.82 z M93.58999999999999 7.119999999999999 c0 -1.08 0.66 -1.82 1.72 -1.82 s1.72 0.74 1.72 1.82 c0 1.04 -0.66 1.78 -1.72 1.78 s-1.72 -0.74 -1.72 -1.78 z M109.405 12.68 l-1.08 0 l0 3.7 c0 0.54 0.34 0.78 0.94 0.78 c1.12 0 2.06 0.24 2.06 1.4 c0 1.4 -1.54 1.44 -3.04 1.44 c-2.06 0 -3.2 -0.76 -3.2 -2.44 l0 -4.88 l-0.12 0 c-0.9 0 -1.58 -0.5 -1.58 -1.42 c0 -0.94 0.68 -1.42 1.58 -1.42 l0.12 0 l0 -1.1 c0 -1.02 0.56 -1.82 1.62 -1.82 s1.62 0.8 1.62 1.82 l0 1.1 l1.08 0 c0.9 0 1.58 0.48 1.58 1.42 c0 0.92 -0.68 1.42 -1.58 1.42 z M122.25999999999999 12.559999999999999 c-1.32 0 -1.72 1.26 -1.72 2.36 s0.4 2.36 1.72 2.36 s1.72 -1.26 1.72 -2.36 s-0.4 -2.36 -1.72 -2.36 z M127.33999999999999 14.92 c0 3.06 -2 5.2 -5.08 5.2 c-3.04 0 -5.08 -2.14 -5.08 -5.2 s2.04 -5.2 5.08 -5.2 c3.08 0 5.08 2.14 5.08 5.2 z"></path>
    </g>
</svg>